<?xml version="1.0" encoding="UTF-8"?>
<svg width="544px" height="96px" viewBox="0 0 544 96" version="1.1" xmlns="http://www.w3.org/2000/svg" xmlns:xlink="http://www.w3.org/1999/xlink">
    <!-- Generator: Sketch 51.3 (57544) - http://www.bohemiancoding.com/sketch -->
    <title>Logo / LawConnect</title>
    <desc>Created with Sketch.</desc>
    <defs></defs>
    <g id="Logo-/-LawConnect" stroke="none" stroke-width="1" fill="none" fill-rule="evenodd">
        <path d="M24.3388934,80.5644163 C29.230986,84.8152985 35.2566982,87.7960283 41.9021,88.9936 C43.3611,89.2556 44.4131,90.5356 44.4131,92.0176 L44.4131,92.8956 C44.4131,94.8016 42.6971,96.2846 40.8191,95.9536 C32.4554123,94.4815064 24.908316,90.6401732 18.8967615,85.1470713 C17.4363079,85.7693544 15.829004,86.1137 14.1413,86.1137 C7.4353,86.1137 2.0003,80.6787 2.0003,73.9727 C2.0003,70.2697897 3.65743857,66.954409 6.27066467,64.7276089 C5.19738955,60.9301189 4.6231,56.9230663 4.6231,52.7816 C4.6231,48.4726 5.2511,44.3116 6.4121,40.3796 C6.9341,38.6096 8.9201,37.7216 10.6111,38.4606 L11.4091,38.8096 C12.8301,39.4316 13.5611,41.0056 13.1281,42.4956 C12.1791,45.7596 11.6671,49.2106 11.6671,52.7816 C11.6671,55.9306488 12.0626748,58.987142 12.8068381,61.904178 C13.2450659,61.8562815 13.6903087,61.8317 14.1413,61.8317 C20.8463,61.8317 26.2823,67.2667 26.2823,73.9727 C26.2823,76.4029185 25.5683908,78.6662167 24.3388934,80.5644163 Z M59.3144888,17.6039907 C57.3151858,21.5656032 53.2091758,24.2821 48.4689,24.2821 C43.728281,24.2821 39.6223301,21.56602 37.6227966,17.6049025 C30.1164638,19.9190521 23.6360938,24.5718045 19.0279,30.7108 C18.1729,31.8498 16.6459,32.2448 15.3409,31.6738 L14.5249,31.3168 C12.7179,30.5268 12.0769,28.2488 13.2529,26.6658 C18.9285743,19.022928 27.0314447,13.2904194 36.4223312,10.6113984 C37.1744887,4.62769213 42.2810281,0.0001 48.4689,0.0001 C54.6555408,0.0001 59.7618083,4.62723091 60.5143568,10.6105038 C69.906635,13.2891431 78.0108834,19.0220772 83.6879,26.6658 C84.8629,28.2488 84.2219,30.5268 82.4159,31.3168 L81.5989,31.6738 C80.2949,32.2448 78.7669,31.8498 77.9119,30.7108 C73.3031009,24.5709981 66.8221051,19.9178298 59.3144888,17.6039907 Z M79.5853369,85.1469814 C73.5737663,90.6401313 66.0266333,94.4814983 57.6629,95.9536 C55.7849,96.2846 54.0689,94.8016 54.0689,92.8956 L54.0689,92.0176 C54.0689,90.5356 55.1219,89.2556 56.5799,88.9936 C63.2253887,87.7960127 69.2511716,84.8152205 74.1432985,80.5642495 C72.9138674,78.6660841 72.2,76.4028473 72.2,73.9727 C72.2,67.2667 77.636,61.8317 84.341,61.8317 C84.7918825,61.8317 85.2370266,61.856277 85.6751652,61.9041648 C86.4193264,58.9871328 86.8149,55.930644 86.8149,52.7816 C86.8149,49.2106 86.3029,45.7596 85.3539,42.4956 C84.9209,41.0056 85.6519,39.4316 87.0729,38.8096 L87.8709,38.4606 C89.5619,37.7216 91.5479,38.6096 92.0699,40.3786 C93.2309,44.3116 93.8589,48.4726 93.8589,52.7816 C93.8589,56.9230924 93.2846032,60.9301695 92.211315,64.7276808 C94.8245939,66.9544839 96.482,70.2698315 96.482,73.9727 C96.482,80.6787 91.046,86.1137 84.341,86.1137 C82.6532172,86.1137 81.045842,85.7693222 79.5853369,85.1469814 Z M48.8755,32.2901 C55.5575,32.2901 66.1465,44.4741 66.1465,49.5291 L66.1465,72.8461 C66.1465,73.7881 65.3815,74.5521 64.4395,74.5521 L34.0425,74.5521 C33.1005,74.5521 32.3365,73.7881 32.3365,72.8461 L32.3365,33.9961 C32.3365,33.0541 33.1005,32.2901 34.0425,32.2901 L48.8755,32.2901 Z M47.1275,36.5171 L36.5625,36.5171 L36.5625,70.3261 L61.9195,70.3261 L61.9195,51.3081 C61.9195,46.0731 51.8915,46.5361 51.8915,46.5361 C51.8915,46.5361 52.1725,36.5171 47.1275,36.5171 Z" id="Icon" fill="#0E5FE3"></path>
        <path d="M116,17.0014384 C116.334512,16.9465733 116.764884,16.9046762 117.294112,16.8767449 C117.823339,16.8488136 118.366547,16.8348479 118.923733,16.8348479 C119.425002,16.8348479 119.92627,16.8488136 120.427539,16.8767449 C120.927809,16.9046762 121.373159,16.9465733 121.763589,17.0014384 L121.763589,71.7418829 L147.407168,71.7418829 C147.461089,72.0750639 147.503028,72.5070021 147.531986,73.034705 C147.558946,73.564403 147.573924,74.023275 147.573924,74.4113212 C147.573924,74.8582227 147.558946,75.3160972 147.531986,75.7889349 C147.503028,76.2617727 147.461089,76.6647821 147.407168,76.9989606 L116,76.9989606 L116,17.0014384 Z M178.655567,48.8775848 C178.655567,45.2066083 177.790829,42.5232043 176.066346,40.8253776 C174.338866,39.1285485 171.776606,38.2796352 168.38156,38.2796352 C166.152812,38.2796352 164.121776,38.4342552 162.283459,38.7395048 C160.44614,39.0457521 158.802539,39.4208301 157.35565,39.8657365 C157.076058,39.3649674 156.840402,38.6427427 156.645686,37.6960697 C156.449972,36.7503942 156.353113,35.8605814 156.353113,35.0256338 C157.801,34.5807274 159.581402,34.2056493 161.699311,33.8994021 C163.814225,33.5941524 165.986056,33.4405301 168.213805,33.4405301 C173.614923,33.4405301 177.624072,34.6236219 180.242252,36.9868131 C182.859432,39.3519993 184.168522,43.0658703 184.168522,48.1264312 L184.168522,76.2473082 C182.218368,76.6373495 179.85282,77.0263932 177.068883,77.4164344 C174.283947,77.8044806 171.638807,78 169.133463,78 C163.954021,78 159.873975,76.9715281 156.895322,74.9125891 C153.916668,72.8546476 152.426843,69.5178497 152.426843,64.8992026 C152.426843,62.6746706 152.858213,60.68556 153.721953,58.9328682 C154.585692,57.1801765 155.781946,55.7067981 157.313711,54.5107381 C158.845476,53.3146781 160.682795,52.4108997 162.826666,51.7974077 C164.969539,51.1869083 167.323104,50.8806611 169.885365,50.8806611 C171.889441,50.8806611 173.614923,50.9504894 175.063809,51.0881511 C176.510697,51.2288053 177.70795,51.3534988 178.655567,51.4642266 L178.655567,48.8775848 Z M178.655567,56.3043294 C177.70795,56.1936015 176.525675,56.068908 175.105747,55.9292513 C173.685819,55.7905922 172.333792,55.7207638 171.054659,55.7207638 C166.878753,55.7207638 163.647468,56.4998488 161.364799,58.0560236 C159.081132,59.615191 157.939798,61.839723 157.939798,64.7326121 C157.939798,66.5681003 158.288289,68.0434738 158.984273,69.1547422 C159.680258,70.2680057 160.583939,71.1159215 161.699311,71.6994871 C162.812687,72.2840502 164.037899,72.6740914 165.373949,72.8676157 C166.710998,73.0641327 168.047048,73.1598973 169.384097,73.1598973 C171.109579,73.1598973 172.725221,73.0761033 174.228028,72.9095127 C175.731834,72.7429222 177.206681,72.5214666 178.655567,72.2421532 L178.655567,56.3043294 Z M187.583539,34.4415694 C187.917052,34.3867043 188.348422,34.3448073 188.87765,34.3168759 C189.405879,34.2889446 189.949087,34.2749789 190.507272,34.2749789 C190.951624,34.2749789 191.494831,34.2889446 192.135895,34.3168759 C192.774963,34.3448073 193.26325,34.3867043 193.597762,34.4415694 L203.035989,70.6575482 L213.56063,34.4415694 C214.00598,34.3867043 214.492271,34.3448073 215.022497,34.3168759 C215.550726,34.2889446 216.121893,34.2749789 216.734998,34.2749789 L218.112987,34.2749789 C218.585298,34.2749789 219.044628,34.3308416 219.490976,34.4415694 L230.015618,70.1557816 L239.454843,34.4415694 C239.789355,34.3867043 240.191768,34.3448073 240.666076,34.3168759 C241.138386,34.2889446 241.597716,34.2749789 242.044065,34.2749789 C242.489415,34.2749789 242.989685,34.2889446 243.546872,34.3168759 C244.104059,34.3448073 244.549409,34.3867043 244.88392,34.4415694 L232.604839,76.9989606 C231.603301,77.1655511 230.627724,77.2493452 229.682104,77.2493452 C228.623649,77.2493452 227.649071,77.1655511 226.758371,76.9989606 L216.484364,41.78452 L205.709088,76.9989606 C204.706551,77.1655511 203.731973,77.2493452 202.786353,77.2493452 C201.726899,77.2493452 200.752321,77.1655511 199.861621,76.9989606 L187.583539,34.4415694 Z M289.822442,65.6499572 C290.545387,67.2081271 291.144513,68.8081941 291.61882,70.4481629 C292.090133,72.0901268 292.438624,73.7440614 292.662298,75.4129591 C289.765525,76.47036 287.162324,77.1656509 284.851696,77.4988319 C282.541068,77.8330105 280.049703,77.999601 277.376604,77.999601 C272.642513,77.999601 268.494566,77.2344817 264.930766,75.7052407 C261.365968,74.1759996 258.373335,72.0332666 255.951869,69.2800342 C253.529404,66.5258043 251.704068,63.2588347 250.480853,59.4751353 C249.254642,55.693431 248.642536,51.5765505 248.642536,47.1254915 C248.642536,42.6754301 249.282601,38.544584 250.563732,34.7329532 C251.843864,30.9233175 253.696161,27.6274191 256.118626,24.8452578 C258.540092,22.0640941 261.518745,19.8944272 265.056583,18.3362573 C268.591424,16.7800825 272.615552,16 277.12597,16 C279.799069,16 282.263473,16.1675881 284.518182,16.5007691 C286.772892,16.8339501 289.209337,17.5312361 291.827516,18.5866419 C291.714681,20.2565372 291.381167,21.8825403 290.824979,23.4686416 C290.266793,25.0537453 289.654687,26.6538122 288.986662,28.2658497 C287.037506,27.5984902 285.311025,27.12665 283.809217,26.8483341 C282.305411,26.5700182 280.522014,26.431359 278.46202,26.431359 C273.11682,26.431359 269.008815,28.1700851 266.141999,31.6465398 C263.273185,35.1229944 261.840276,40.2823125 261.840276,47.1254915 C261.840276,60.7001242 267.603865,67.486443 279.131044,67.486443 C281.190039,67.486443 283.000397,67.3477838 284.559123,67.0684704 C286.118847,66.7911521 287.873286,66.3173168 289.822442,65.6499572 Z M315.883112,77.9998005 C312.375231,77.9998005 309.32668,77.4292031 306.737458,76.2890057 C304.147238,75.149806 302.004365,73.5637047 300.304845,71.532697 C298.605325,69.5036845 297.325193,67.1245326 296.462452,64.398234 C295.599711,61.672933 295.168341,58.7241812 295.168341,55.5529762 C295.168341,52.3827688 295.599711,49.4070832 296.462452,46.624922 C297.325193,43.8427607 298.605325,41.4376726 300.304845,39.4066649 C302.004365,37.3766548 304.147238,35.7765879 306.737458,34.6084592 C309.32668,33.4403305 312.375231,32.8557674 315.883112,32.8557674 C319.391991,32.8557674 322.453524,33.4403305 325.071703,34.6084592 C327.687885,35.7765879 329.859716,37.3766548 331.587195,39.4066649 C333.311678,41.4376726 334.592809,43.8427607 335.428589,46.624922 C336.263371,49.4070832 336.68176,52.3827688 336.68176,55.5529762 C336.68176,58.7241812 336.263371,61.672933 335.428589,64.398234 C334.592809,67.1245326 333.311678,69.5036845 331.587195,71.532697 C329.859716,73.5637047 327.687885,75.149806 325.071703,76.2890057 C322.453524,77.4292031 319.391991,77.9998005 315.883112,77.9998005 Z M315.883112,68.9879522 C319.000562,68.9879522 321.242291,67.8337892 322.606301,65.5244657 C323.971309,63.2171372 324.653313,59.8923099 324.653313,55.5529762 C324.653313,51.2146401 323.971309,47.8908103 322.606301,45.5814868 C321.242291,43.2741584 319.000562,42.1180003 315.883112,42.1180003 C312.820581,42.1180003 310.606811,43.2741584 309.242802,45.5814868 C307.876795,47.8908103 307.196788,51.2146401 307.196788,55.5529762 C307.196788,59.8923099 307.876795,63.2171372 309.242802,65.5244657 C310.606811,67.8337892 312.820581,68.9879522 315.883112,68.9879522 Z M342.694586,33.8575051 C343.473449,33.6909146 344.253311,33.5652235 345.034172,33.4824271 C345.813035,33.398633 346.675776,33.356736 347.623393,33.356736 C348.569013,33.356736 349.404794,33.398633 350.128737,33.4824271 C350.851682,33.5652235 351.604584,33.6909146 352.384446,33.8575051 C352.551202,34.1368185 352.703979,34.5398279 352.843775,35.0675308 C352.981574,35.5972287 353.107391,36.1518654 353.219227,36.7364285 C353.330066,37.3209916 353.427923,37.8915891 353.5118,38.4472233 C353.595678,39.003855 353.663579,39.4766928 353.720496,39.8657365 C354.276684,39.0317864 354.944709,38.1968387 355.72557,37.3618911 C356.504433,36.5269434 357.409113,35.7767874 358.440608,35.1084302 C359.470106,34.4410707 360.624421,33.8994021 361.905551,33.4824271 C363.186682,33.065452 364.605611,32.8559669 366.166334,32.8559669 C371.066183,32.8559669 374.754801,34.1906861 377.234182,36.861122 C379.710569,39.5315579 380.951757,43.7332299 380.951757,49.4621479 L380.951757,76.9984618 C378.946683,77.3326404 376.96857,77.4992309 375.020413,77.4992309 C373.071257,77.4992309 371.094143,77.3326404 369.091066,76.9984618 L369.091066,52.6323553 C369.091066,49.6287384 368.630737,47.32141 367.712078,45.7063798 C366.79242,44.0933447 365.190757,43.287326 362.909087,43.287326 C361.96147,43.287326 360.986892,43.4259852 359.985354,43.704301 C358.982817,43.9826169 358.077138,44.525283 357.271314,45.3313018 C356.462494,46.1383181 355.809447,47.2645497 355.308179,48.7109943 C354.805912,50.1584364 354.556276,52.0487897 354.556276,54.3850471 L354.556276,76.9984618 C352.551202,77.3326404 350.574087,77.4992309 348.624932,77.4992309 C346.675776,77.4992309 344.69966,77.3326404 342.694586,76.9984618 L342.694586,33.8575051 Z M388.384711,33.8575051 C389.162575,33.6909146 389.942437,33.5652235 390.723298,33.4824271 C391.502161,33.398633 392.364902,33.356736 393.313518,33.356736 C394.25814,33.356736 395.09392,33.398633 395.817863,33.4824271 C396.541807,33.5652235 397.29371,33.6909146 398.073572,33.8575051 C398.240328,34.1368185 398.393105,34.5398279 398.532901,35.0675308 C398.671699,35.5972287 398.796517,36.1518654 398.908354,36.7364285 C399.019192,37.3209916 399.118047,37.8915891 399.200927,38.4472233 C399.284804,39.003855 399.352705,39.4766928 399.409622,39.8657365 C399.96581,39.0317864 400.633836,38.1968387 401.414696,37.3618911 C402.193559,36.5269434 403.098239,35.7767874 404.129734,35.1084302 C405.159232,34.4410707 406.313547,33.8994021 407.595676,33.4824271 C408.875808,33.065452 410.295736,32.8559669 411.856458,32.8559669 C416.75531,32.8559669 420.443927,34.1906861 422.923309,36.861122 C425.399695,39.5315579 426.640884,43.7332299 426.640884,49.4621479 L426.640884,76.9984618 C424.636808,77.3326404 422.657696,77.4992309 420.709539,77.4992309 C418.760384,77.4992309 416.784267,77.3326404 414.780192,76.9984618 L414.780192,52.6323553 C414.780192,49.6287384 414.319864,47.32141 413.401204,45.7063798 C412.481546,44.0933447 410.880882,43.287326 408.598213,43.287326 C407.650596,43.287326 406.676018,43.4259852 405.67448,43.704301 C404.671943,43.9826169 403.766264,44.525283 402.96044,45.3313018 C402.151621,46.1383181 401.498574,47.2645497 400.997305,48.7109943 C400.496037,50.1584364 400.245402,52.0487897 400.245402,54.3850471 L400.245402,76.9984618 C398.240328,77.3326404 396.263214,77.4992309 394.314058,77.4992309 C392.364902,77.4992309 390.388786,77.3326404 388.384711,76.9984618 L388.384711,33.8575051 Z M443.512663,59.0575617 C443.734339,62.3953572 444.903633,64.8154086 447.020544,66.3177158 C449.135457,67.820023 451.920393,68.5711767 455.373354,68.5711767 C457.265593,68.5711767 459.200769,68.3906205 461.178882,68.0285106 C463.154,67.6673982 465.033258,67.1526635 466.816655,66.4853039 C467.428762,67.5985674 467.956991,68.9332866 468.40334,70.4904589 C468.849689,72.0486289 469.099324,73.7175266 469.155243,75.4971522 C464.81258,77.1660499 459.910733,78 454.454695,78 C450.445546,78 447.006564,77.4433682 444.138749,76.3311023 C441.269935,75.2188363 438.931348,73.6756296 437.121989,71.6994871 C435.312629,69.7263372 433.97558,67.3751166 433.112839,64.6488181 C432.2491,61.923517 431.818728,58.9468339 431.818728,55.7207638 C431.818728,52.5495588 432.264078,49.5738733 433.154778,46.7907144 C434.04448,44.0105483 435.368547,41.5904969 437.121989,39.5315579 C438.87543,37.474614 441.049258,35.8466157 443.637481,34.6495582 C446.226702,33.4544957 449.247294,32.8559669 452.700255,32.8559669 C455.706868,32.8559669 458.379967,33.3846674 460.718554,34.4410707 C463.057142,35.499469 465.048236,36.944916 466.691837,38.7814018 C468.333442,40.6158925 469.573632,42.8005226 470.408414,45.3313018 C471.243196,47.8630785 471.661585,50.5754114 471.661585,53.467303 C471.661585,54.5247038 471.619646,55.5671414 471.535769,56.5966109 C471.451891,57.627078 471.355032,58.4460648 471.243196,59.0575617 L443.512663,59.0575617 Z M460.468919,50.7968671 C460.356083,48.1264312 459.61816,45.9717276 458.255149,44.3297636 C456.889142,42.6897948 454.982924,41.8688128 452.533499,41.8688128 C449.747564,41.8688128 447.63265,42.6478977 446.184763,44.2050701 C444.735878,45.76324 443.874135,47.9598406 443.59654,50.7968671 L460.468919,50.7968671 Z M506.659413,66.8184849 C507.328437,67.9317484 507.884625,69.2255681 508.329975,70.6989465 C508.775325,72.1733223 508.998999,73.9110509 508.998999,75.9141272 C506.770251,76.80394 504.682298,77.3745374 502.733143,77.624922 C500.783987,77.874309 498.751952,78 496.637039,78 C493.015324,78 489.870912,77.4294026 487.197813,76.2892052 C484.524714,75.1500055 482.310945,73.5778699 480.556505,71.5747936 C478.804062,69.5727148 477.478996,67.1935629 476.590293,64.4403305 C475.698594,61.6861006 475.253244,58.6964494 475.253244,55.4703793 C475.253244,52.2991743 475.683616,49.3504225 476.547355,46.6241239 C477.410096,43.8998204 478.720185,41.5067029 480.472627,39.4487614 C482.227067,37.39082 484.412877,35.7767874 487.030058,34.6086587 C489.647239,33.4405301 492.68181,32.8559669 496.134772,32.8559669 C497.358985,32.8559669 498.48634,32.8848958 499.518833,32.939761 C500.548331,32.9956237 501.534891,33.1063515 502.482508,33.272942 C503.430125,33.4405301 504.375746,33.6629832 505.323363,33.9412991 C506.269981,34.219615 507.328437,34.5807274 508.496732,35.0256338 C508.496732,36.3064853 508.329975,37.7379667 507.996462,39.3230704 C507.66195,40.9081741 507.132722,42.424447 506.408779,43.8708916 C504.738217,43.3152573 503.27635,42.9401793 502.023179,42.7446599 C500.772004,42.550138 499.337098,42.4523783 497.722455,42.4523783 C494.268495,42.4523783 491.666292,43.57861 489.912851,45.8320708 C488.158411,48.0845341 487.281691,51.2976361 487.281691,55.4703793 C487.281691,59.9753059 488.227311,63.2592338 490.121547,65.3171752 C492.013785,67.3751166 494.575048,68.4035886 497.805334,68.4035886 C498.642113,68.4035886 499.404999,68.3906205 500.103979,68.3616916 C500.798965,68.3347578 501.48097,68.265927 502.147997,68.1532041 C502.81702,68.0434738 503.499025,67.8758857 504.195009,67.652435 C504.890994,67.4309793 505.712794,67.1516659 506.659413,66.8184849 Z M517.276619,42.8695529 L511.848541,42.8695529 L511.43115,41.2006552 L527.050357,21.2576763 L528.971553,21.2576763 L528.971553,33.8577046 L539.078804,33.8577046 C539.24556,34.6916547 539.356398,35.4428083 539.412317,36.1101679 C539.467237,36.778525 539.495196,37.473816 539.495196,38.1960407 C539.495196,38.9761232 539.467237,39.7272768 539.412317,40.4495015 C539.356398,41.1737214 539.24556,41.9807377 539.078804,42.8695529 L528.971553,42.8695529 L528.971553,59.8089149 C528.971553,61.5336753 529.109352,62.9252547 529.388944,63.981658 C529.666539,65.0390588 530.070949,65.8730089 530.600176,66.4845058 C531.128406,67.0970003 531.781453,67.5149729 532.563312,67.7364285 C533.342175,67.9588817 534.260834,68.0696095 535.31929,68.0696095 C536.15507,68.0696095 536.975872,68.0007787 537.783694,67.8621196 C538.590516,67.7234604 539.30048,67.5987669 539.913585,67.486044 C540.303017,68.5434448 540.581611,69.6417451 540.748367,70.7819425 C540.915124,71.9231373 541,72.9386411 541,73.8274564 C541,74.4409484 540.985022,74.9546856 540.957063,75.3716606 C540.929103,75.7886357 540.887165,76.1926426 540.832245,76.5816863 C538.269984,77.1931832 535.624844,77.4994304 532.897823,77.4994304 C527.828221,77.4994304 523.959867,76.3183336 521.286767,73.9531474 C518.613668,71.5899563 517.276619,67.7364285 517.276619,62.3955567 L517.276619,42.8695529 Z" id="Type" fill="#191919"></path>
    </g>
</svg>