<?xml version="1.0" encoding="UTF-8"?>
<svg width="24px" height="24px" viewBox="0 0 24 24" version="1.1" xmlns="http://www.w3.org/2000/svg" xmlns:xlink="http://www.w3.org/1999/xlink">
    <!-- Generator: Sketch 51.3 (57544) - http://www.bohemiancoding.com/sketch -->
    <title>icon-menu</title>
    <desc>Created with Sketch.</desc>
    <defs>
        <path d="M3.75,11.25 L20.25,11.25 C20.6642136,11.25 21,11.5857864 21,12 C21,12.4142136 20.6642136,12.75 20.25,12.75 L3.75,12.75 C3.33578644,12.75 3,12.4142136 3,12 C3,11.5857864 3.33578644,11.25 3.75,11.25 Z M3.75,4.5 L20.25,4.5 C20.6642136,4.5 21,4.83578644 21,5.25 C21,5.66421356 20.6642136,6 20.25,6 L3.75,6 C3.33578644,6 3,5.66421356 3,5.25 C3,4.83578644 3.33578644,4.5 3.75,4.5 Z M3.75,18 L20.25,18 C20.6642136,18 21,18.3357864 21,18.75 C21,19.1642136 20.6642136,19.5 20.25,19.5 L3.75,19.5 C3.33578644,19.5 3,19.1642136 3,18.75 C3,18.3357864 3.33578644,18 3.75,18 Z" id="path-1"></path>
    </defs>
    <g id="Symbols" stroke="none" stroke-width="1" fill="none" fill-rule="evenodd">
        <g id="icon-menu">
            <g id="Group">
                <g id="Web/24x24/menu">
                    <mask id="mask-2" fill="white">
                        <use xlink:href="#path-1"></use>
                    </mask>
                    <g id="Combined-Shape" fill-rule="nonzero"></g>
                    <g id="LawConnect-v2/Helper-Info" mask="url(#mask-2)" fill="#6D7278" fill-rule="evenodd">
                        <rect id="Rectangle" x="0" y="0" width="24" height="24"></rect>
                    </g>
                </g>
            </g>
        </g>
    </g>
</svg>